<?xml version="1.0" encoding="utf-8"?>
<!-- Generator: Adobe Illustrator 25.4.1, SVG Export Plug-In . SVG Version: 6.00 Build 0)  -->
<svg version="1.1" id="レイヤー_1" xmlns="http://www.w3.org/2000/svg" xmlns:xlink="http://www.w3.org/1999/xlink" x="0px"
	 y="0px" viewBox="0 0 512 512" style="enable-background:new 0 0 512 512;" xml:space="preserve">
<style type="text/css">
	.st0{fill:#06A9DD;}
</style>
<g>
	<path class="st0" d="M463,183.6l-70.9,233.4C385.7,439,363,456,340.8,456H103c-26.3,0-54.4-20.9-63.9-47.7
		c-4.1-11.6-4.1-22.9-0.5-32.7c0.5-5.1,1.6-10.3,1.8-16.5c0.3-4.1-2.1-7.5-1.5-10.6c1-6.2,6.4-10.6,10.6-17.5
		c7.7-12.9,16.5-33.7,19.3-47.1c1.3-4.9-1.3-10.6,0-15c1.3-4.9,6.2-8.5,8.8-13.1c6.9-11.8,16-34.8,17.3-46.9
		c0.5-5.4-2.1-11.3-0.5-15.5c1.8-5.9,7.5-8.5,11.3-13.6c6.2-8.5,16.5-33,18-46.7c0.5-4.4-2-8.8-1.3-13.4c1-4.9,7.2-10.1,11.3-16
		c10.8-16,12.9-51.3,45.6-42l-0.3,0.8c4.4-1.1,8.8-2.3,13.1-2.3h196.1c12.1,0,22.9,5.4,29.4,14.4c6.7,9.3,8.2,21.4,4.6,33.5
		l-70.6,233.4c-12.1,39.7-18.8,48.5-51.5,48.5H76.2c-3.3,0-7.5,0.8-9.8,3.9c-2.1,3.1-2.3,5.4-0.3,11.1c5.1,15,22.9,18,37.1,18h237.8
		c9.5,0,20.6-5.4,23.4-14.7L441.9,154c1.5-4.9,1.5-10.1,1.3-14.7c5.9,2.3,11.3,5.9,15.2,11.1C464.8,159.7,466.6,171.8,463,183.6z
		 M168.4,225.1h156.7c4.4,0,9.3-3.6,10.8-8.3l5.4-16.5c1.5-4.7-1-8.3-5.7-8.3H179c-4.4,0-9.3,3.6-10.8,8.3l-5.4,16.5
		C161.2,221.5,163.8,225.1,168.4,225.1z M189.8,159.1h156.7c4.4,0,9.3-3.6,10.8-8.3l5.4-16.5c1.6-4.7-1-8.3-5.7-8.3H200.4
		c-4.4,0-9.3,3.6-10.8,8.3l-5.4,16.5C182.6,155.5,185.2,159.1,189.8,159.1z"/>
	<path d="M168.4,224.6h156.7c4.4,0,9.3-3.6,10.8-8.3l5.4-16.5c1.5-4.7-1-8.3-5.7-8.3H179c-4.4,0-9.3,3.6-10.8,8.3l-5.4,16.5
		C161.2,221,163.8,224.6,168.4,224.6z"/>
	<path d="M189.2,158.9h156.7c4.4,0,9.3-3.6,10.8-8.3l5.4-16.5c1.5-4.7-1-8.3-5.7-8.3H199.8c-4.4,0-9.3,3.6-10.8,8.3l-5.4,16.5
		C182,155.3,184.6,158.9,189.2,158.9z"/>
</g>
</svg>
